<?xml version="1.0" encoding="UTF-8" standalone="no"?>
<!-- Created with Inkscape (http://www.inkscape.org/) -->

<svg
   version="1.1"
   id="svg1"
   width="944.60425"
   height="177.94373"
   viewBox="0 0 944.60425 177.94373"
   xmlns="http://www.w3.org/2000/svg"
   xmlns:svg="http://www.w3.org/2000/svg">
  <defs
     id="defs1" />
  <g
     id="g1"
     transform="translate(-67.697853,-451.02813)">
    <path
       style="fill:#276d47;fill-opacity:1;stroke-width:0.38401"
       d="m 83.255847,628.57809 c -6.62716,-1.09476 -12.57602,-6.41808 -14.69249,-13.14758 l -0.85991,-2.73417 v -73.92192 c 0,-83.27978 -0.27323,-75.92552 2.99846,-80.70636 1.93349,-2.8254 5.35725,-5.34827 8.63339,-6.36169 2.07109,-0.64067 7.52998,-0.67823 98.579013,-0.67823 90.04923,0 96.52652,0.0434 98.5165,0.66006 5.25779,1.62931 9.55912,5.92191 11.21735,11.19461 l 0.86099,2.73771 v 73.53791 73.53791 l -0.84804,2.68808 c -2.07677,6.58259 -7.60909,11.66794 -14.21675,13.06813 -2.21996,0.47043 -16.14428,0.5453 -95.33804,0.51266 -53.59489,-0.0221 -93.629893,-0.18549 -94.850473,-0.38712 z M 270.84469,615.2324 c 1.88226,-0.87146 3.41289,-2.45453 4.20376,-4.34777 0.53028,-1.26949 0.59637,-7.89715 0.59637,-59.80955 v -58.38186 h -97.5385 -97.538543 v 58.27605 c 0,37.04214 0.1376,58.75578 0.3776,59.59266 0.48074,1.67622 2.44749,3.75255 4.42253,4.66894 1.4827,0.68794 4.70378,0.71269 92.738413,0.71269 87.96286,0 91.2569,-0.0253 92.73837,-0.71116 z m -94.26089,-7.69494 c -0.23805,-0.4448 -0.39753,-3.99837 -0.39753,-8.85811 v -8.11534 l 0.86402,0.26916 c 2.84379,0.8859 2.59207,0.039 2.59207,8.72053 0,5.55847 -0.13264,7.93754 -0.46081,8.26572 -0.70547,0.70547 -2.15341,0.54831 -2.59775,-0.28196 z m -7.61692,-2.0221 c -0.25345,-0.25345 -0.46081,-0.84214 -0.46081,-1.3082 0,-0.69124 0.52578,-1.06628 2.85338,-2.03525 1.56938,-0.65333 2.95181,-1.18787 3.07209,-1.18787 0.12027,0 0.21869,0.74566 0.21869,1.65703 v 1.65703 l -2.40006,0.84292 c -2.79625,0.98206 -2.68792,0.96972 -3.28329,0.37434 z m 12.61012,-5.77935 c 0.0138,-1.90717 0.0962,-2.0725 1.52602,-3.0613 1.78945,-1.23749 2.26285,-2.59151 1.37817,-3.94169 -0.80911,-1.2349 -2.03268,-1.84267 -7.45908,-3.70504 -8.82674,-3.0294 -11.7011,-4.92537 -12.89533,-8.50589 -1.70992,-5.12679 0.34561,-8.96414 6.37165,-11.89499 1.62383,-0.78977 3.00626,-1.43573 3.07208,-1.43548 0.0659,2.5e-4 0.10237,1.49526 0.0812,3.32224 l -0.0385,3.3218 -1.30594,0.66998 c -2.92331,1.49975 -3.5097,3.44071 -1.64114,5.43236 1.33048,1.41813 3.51054,2.42642 9.36024,4.32918 6.5746,2.13854 7.85201,2.92785 9.29562,5.74359 0.58403,1.13922 0.73096,2.00948 0.60193,3.56555 -0.24342,2.9355 -1.70493,4.85702 -5.09742,6.70197 -1.47844,0.80402 -2.81768,1.46454 -2.97608,1.46781 -0.15841,0.004 -0.28145,-0.90126 -0.27342,-2.01009 z m -3.56669,-18.07999 -2.20805,-0.7894 v -11.22333 -11.22334 l 1.05603,-0.20938 c 0.58081,-0.11516 1.66084,-0.31299 2.40006,-0.43962 l 1.34403,-0.23023 -0.0992,9.33734 c -0.0546,5.13553 -0.14101,10.7391 -0.19201,12.45236 l -0.0928,3.11501 z m -49.05727,-0.0962 c -7.45029,-1.96558 -13.32764,-7.70285 -14.6054,-14.25734 -0.58534,-3.00264 -0.3794,-3.56738 1.30103,-3.56738 h 1.31212 l 2.70347,-6.62417 c 1.48693,-3.6433 4.87029,-12.05338 7.51853,-18.68909 l 4.81503,-12.06493 -0.94635,-0.87707 c -1.30875,-1.21288 -1.2932,-3.28994 0.0346,-4.61765 0.86199,-0.86201 1.17618,-0.94701 2.59206,-0.70118 0.88611,0.15387 8.39374,0.34782 16.68355,0.43102 l 15.07239,0.15128 v 2.4874 2.4874 H 151.0337 c -7.92021,0 -14.40038,0.14849 -14.40038,0.32996 0,0.18147 2.17004,5.66802 4.82236,12.19231 2.65228,6.5243 6.04973,14.92131 7.54987,18.66002 l 2.72755,6.79766 1.76237,0.11452 1.76234,0.11453 -0.0658,2.38767 c -0.17696,6.41664 -6.79495,13.20047 -14.89525,15.26848 -2.85319,0.72842 -8.53831,0.71668 -11.34362,-0.0234 z m 15.10246,-26.94496 c -1.99374,-5.01613 -4.84367,-12.23071 -6.33321,-16.03241 -1.48953,-3.8017 -2.84501,-7.25779 -3.01221,-7.6802 l -0.30398,-0.76802 -0.29243,0.76802 c -0.16082,0.42241 -3.11577,7.89191 -6.56661,16.59888 -3.45082,8.70697 -6.27422,15.92156 -6.27422,16.03241 0,0.11086 5.94171,0.20156 13.20384,0.20156 h 13.20384 z m 71.93145,26.94445 c -7.78884,-1.88548 -14.519,-8.76813 -14.613,-14.94412 l -0.035,-2.30403 1.2806,-0.19203 c 1.26839,-0.19019 1.3079,-0.25963 4.14958,-7.29621 1.57793,-3.9073 4.95684,-12.20191 7.50862,-18.43248 2.55182,-6.23056 4.72236,-11.6307 4.82347,-12.00031 0.17262,-0.63113 -0.67179,-0.67202 -13.87735,-0.67202 h -14.06114 v -2.49606 -2.49607 h 14.34135 c 12.13291,0 14.52357,-0.0909 15.52464,-0.59029 2.30467,-1.14971 4.48543,0.29234 4.48543,2.96602 0,1.14372 -0.22668,1.7299 -0.87047,2.25123 l -0.87048,0.70486 5.82966,14.32653 c 3.20633,7.8796 6.63661,16.31379 7.62294,18.74265 l 1.79325,4.41612 1.51246,0.192 1.5125,0.19201 -0.082,2.29791 c -0.23528,6.59274 -7.46189,13.87946 -15.39327,15.52132 -2.74521,0.56827 -7.83312,0.47835 -10.5817,-0.18703 z m 18.95281,-17.92455 c 0,-0.0552 -2.9972,-7.59089 -6.66046,-16.74603 l -6.6605,-16.64569 -6.71138,16.74603 -6.71138,16.74603 h 13.37187 c 7.35453,0 13.37185,-0.0452 13.37185,-0.10034 z m -52.29548,3.86218 0.12185,-3.20976 2.28824,-0.8873 c 4.36408,-1.69221 6.05526,-4.36085 4.04039,-6.37572 -1.99592,-1.99593 -4.85799,-2.10435 -14.36758,-0.54426 -7.68964,1.26153 -12.43355,0.67323 -13.03226,-1.61614 -0.16347,-0.6252 -0.56,-0.72891 -2.78687,-0.72891 -2.93146,0 -3.8151,-0.53588 -3.09678,-1.87805 0.34166,-0.63842 0.86841,-0.79513 2.98672,-0.88857 2.35917,-0.10407 2.58988,-0.19 2.78906,-1.03886 0.11943,-0.50897 0.70221,-1.28659 1.29512,-1.72804 0.97684,-0.72734 1.57041,-0.79929 6.32702,-0.76687 2.88699,0.0197 8.44592,0.31447 12.35322,0.65508 9.97788,0.86983 12.67644,1.93231 14.64875,5.76758 2.18613,4.25108 0.6903,9.6224 -3.44119,12.35646 -1.62444,1.07502 -7.40141,3.52156 -9.13955,3.87062 l -1.10799,0.2225 z m -5.68999,-21.3253 c -0.52801,-0.0981 -1.04643,-0.29061 -1.15203,-0.42772 -0.10561,-0.13711 -1.03057,-0.68131 -2.05549,-1.20932 -1.02493,-0.52801 -2.53696,-1.62837 -3.36009,-2.44524 -1.42951,-1.41864 -1.4966,-1.59561 -1.4966,-3.94815 0,-3.43186 0.59836,-3.5436 3.38075,-0.63135 1.20306,1.25922 2.5762,2.49698 3.05142,2.75058 0.84992,0.45356 0.86391,0.42481 0.85642,-1.76048 l -0.008,-2.22157 -1.81645,-1.08183 c -3.30249,-1.9669 -5.03241,-3.74958 -5.09892,-5.25434 -0.19777,-4.47486 0.33981,-4.70519 3.68281,-1.57798 1.37933,1.2903 2.67436,2.346 2.87784,2.346 0.20346,0 0.36501,-0.73442 0.35898,-1.63204 -0.0108,-1.61995 -0.0323,-1.6448 -2.90323,-3.35417 -1.59072,-0.94718 -3.31382,-2.27488 -3.82912,-2.95046 -0.89267,-1.17039 -0.93687,-1.4885 -0.93687,-6.74529 0,-5.78916 0.1743,-6.43859 1.72805,-6.43859 1.44334,0 1.72804,0.73616 1.72804,4.46792 0,3.78367 0.34899,5.20639 1.60647,6.54886 l 0.7873,0.84051 0.91356,-1.80053 c 0.87796,-1.73032 0.91363,-2.12327 0.91517,-10.07596 0,-8.85122 0.074,-9.19704 1.92166,-9.19704 1.84951,0 1.92005,0.34062 1.92005,9.2711 0,7.79055 0.054,8.44091 0.80596,9.71545 0.44327,0.75129 0.96421,1.36598 1.15768,1.36598 0.19342,0 0.69413,-0.56161 1.11266,-1.24803 0.61984,-1.01663 0.76119,-1.93715 0.76238,-4.9647 0,-4.04792 0.3799,-4.92356 2.12742,-4.92356 1.42717,0 1.7141,1.08837 1.7141,6.50182 v 5.01627 l -1.4016,1.55142 c -0.7709,0.85328 -2.49894,2.27286 -3.8401,3.15463 -2.36692,1.55616 -2.4385,1.65154 -2.4385,3.24981 0,0.92305 0.18225,1.6466 0.41473,1.6466 0.2281,0 1.45997,-1.04521 2.73746,-2.32271 2.99608,-2.9961 3.56799,-2.92117 3.56799,0.46748 0,3.02095 -0.32081,3.48444 -4.12811,5.96428 l -2.59207,1.68832 v 2.09344 c 0,1.1514 0.16977,2.09345 0.37729,2.09345 0.47007,0 3.3837,-2.87767 4.44457,-4.3897 0.54894,-0.78243 0.98798,-1.04953 1.44004,-0.87607 0.95822,0.3677 0.89847,4.27805 -0.0902,5.89939 -0.7621,1.24982 -3.44818,3.30401 -5.18263,3.96346 -0.54399,0.20682 -0.9891,0.55312 -0.9891,0.76956 0,0.39563 -1.28854,0.44198 -3.07208,0.1105 z M 92.892157,477.89023 c 4.61323,-2.38561 2.79533,-9.3896 -2.43708,-9.3896 -1.71069,0 -2.07142,0.15799 -3.40432,1.49086 -1.32572,1.32573 -1.49085,1.69907 -1.49085,3.37065 0,2.12596 0.64971,3.29154 2.44488,4.38619 1.45743,0.8887 3.33762,0.94329 4.88737,0.1419 z m 20.292783,-0.10704 c 4.6413,-2.48915 2.8257,-9.28256 -2.48082,-9.28256 -1.59046,0 -1.99075,0.1808 -3.30083,1.49086 -1.27995,1.27994 -1.49004,1.72815 -1.4852,3.16808 0.007,2.12879 0.62662,3.3458 2.26477,4.44976 1.56957,1.05772 3.24543,1.11597 5.00208,0.17386 z m 22.17646,-0.97127 c 1.05518,-1.15143 1.27184,-1.68941 1.27184,-3.15827 0,-3.19314 -1.93806,-5.15302 -5.09558,-5.15302 -4.94263,0 -6.70282,6.59514 -2.46999,9.2546 0.93387,0.58673 1.68522,0.733 3.12565,0.60846 1.58273,-0.13684 2.10649,-0.39339 3.16808,-1.55177 z"
       id="path5971" />
    <g
       id="g6"
       transform="translate(-37.035973,5.1514135)">
      <g
         id="g3"
         transform="matrix(0.65034125,0,0,0.65034125,169.59987,92.948959)">
        <path
           style="fill:#243632;fill-opacity:1;stroke-width:0.834128"
           d="m 742.35333,631.0366 c -4.40712,-1.2273 -10.21891,-7.10183 -10.96604,-11.08454 -2.01567,-10.74433 5.30272,-19.05363 16.8106,-19.08676 9.71368,-0.0279 16.57788,6.31233 16.57788,15.31248 0,3.3507 -0.52416,5.44316 -1.93551,7.72675 -3.76383,6.08998 -12.859,9.25627 -20.48693,7.13207 z"
           id="path5970" />
        <path
           style="fill:#243632;fill-opacity:1;stroke-width:0.834128"
           d="m 733.52375,691.66637 v -52.96714 h 14.59724 14.59724 v 52.96714 52.96713 h -14.59724 -14.59724 z"
           id="path5969" />
        <path
           style="fill:#243632;fill-opacity:1;stroke-width:0.834128"
           d="m 650.11094,691.66637 v -52.96714 h 14.56805 14.56804 l 0.23773,8.54982 0.23773,8.54981 1.54897,-2.84204 c 2.43666,-4.47081 8.89923,-10.9039 13.0843,-13.02465 4.4067,-2.23303 13.8718,-3.74827 18.73185,-2.99871 l 3.33651,0.51458 v 12.92899 12.92898 l -8.3633,0.062 c -7.08692,0.0525 -9.06005,0.38224 -12.92899,2.16052 -9.64585,4.43355 -13.70822,10.33047 -15.02898,21.8159 -0.43158,3.75338 -0.78759,18.17889 -0.79109,32.0567 l -0.008,25.23239 h -14.59724 -14.59724 z"
           id="path5968" />
        <path
           style="fill:#243632;fill-opacity:1;stroke-width:0.834128"
           d="m 308.11851,691.66637 v -52.96714 h 14.59724 14.59725 v 7.09719 7.09719 l 5.2133,-5.28742 c 8.77361,-8.89834 17.62387,-11.91834 32.85146,-11.20996 6.60046,0.30705 10.32851,0.92072 13.71857,2.25821 9.8845,3.8997 17.09054,11.61266 20.84345,22.30959 1.97296,5.62357 1.9949,6.05563 2.27058,44.67398 l 0.27843,38.99549 h -14.23231 -14.23231 v -32.81549 c 0,-25.50113 -0.25666,-33.66822 -1.15143,-36.64123 -2.65453,-8.82047 -8.62981,-13.19148 -18.84112,-13.78261 -8.64782,-0.50061 -14.79977,1.30345 -19.63112,5.75687 -6.48601,5.9786 -6.57593,6.55663 -6.89532,44.32587 l -0.28035,33.15659 h -14.5532 -14.55312 z"
           id="path5967" />
        <path
           style="fill:#243632;fill-opacity:1;stroke-width:0.834128"
           d="m 602.0207,746.22271 c -12.45078,-2.08015 -20.89274,-8.38238 -24.48991,-18.28254 -1.90223,-5.23552 -1.97664,-6.39199 -2.2926,-35.64821 l -0.32648,-30.23714 h -9.94565 -9.94564 v -11.67779 -11.6778 h 10.00954 10.00954 v -13.34605 -13.34605 h 14.59715 14.59724 v 13.34605 13.34605 h 14.18018 14.18018 v 11.6778 11.67779 h -14.18018 -14.18018 l 0.008,24.39825 c 0,14.95901 0.35567,25.68908 0.91187,27.73475 1.18496,4.35825 4.45257,7.73341 8.55681,8.83857 3.34352,0.9003 11.77689,0.35232 15.34196,-0.99691 l 1.87645,-0.71028 v 11.20794 11.20793 l -3.54504,0.9569 c -8.66409,2.33866 -17.37664,2.86455 -25.36025,1.53074 z"
           id="path5966" />
        <path
           style="fill:#243632;fill-opacity:1;stroke-width:0.834128"
           d="m 463.6834,746.33326 c -15.07904,-3.25202 -23.58706,-11.7324 -26.75274,-26.66572 -0.89344,-4.2149 -1.16494,-14.19178 -1.17612,-43.22401 l -0.0142,-37.7443 h 14.59724 14.59724 l 0.0183,36.07604 c 0.0175,33.63652 0.12545,36.31203 1.60278,39.56592 2.85163,6.28083 11.2845,10.05942 20.35247,9.11951 9.35208,-0.96937 16.42766,-5.68812 19.83607,-13.22891 1.96637,-4.35036 1.98406,-4.65229 2.2262,-37.9589 l 0.24399,-33.57366 h 14.5617 14.56171 v 52.96714 52.96713 h -14.2394 -14.23932 l 0.26768,-7.50907 c 0.1473,-4.12999 0.0801,-7.48527 -0.14931,-7.45618 -0.22939,0.0291 -1.55465,1.61936 -2.94514,3.53393 -3.40099,4.68308 -10.39124,9.42213 -17.03473,11.54876 -6.06737,1.9422 -20.59496,2.81576 -26.31424,1.58232 z"
           id="path5965" />
      </g>
      <g
         id="g2"
         transform="matrix(0.80861474,0,0,0.80861474,429.3857,-116.72447)">
        <path
           style="fill:#243632;fill-opacity:1;stroke-width:0.834128"
           d="m 723.09714,858.1222 c -13.10698,-1.57466 -23.85923,-8.01082 -28.31264,-16.94756 -3.65031,-7.3253 -3.43227,-7.65211 6.17055,-9.24692 10.17594,-1.68998 10.88137,-1.69808 10.88137,-0.12507 0,2.29287 7.702,9.36234 11.26072,10.33589 4.19367,1.14724 11.56744,1.1751 15.58627,0.0589 6.70964,-1.86353 9.4063,-9.07971 5.24233,-14.02827 -2.6074,-3.09872 -6.96113,-4.55965 -20.24262,-6.79261 -16.37168,-2.75251 -23.10184,-6.14214 -27.0793,-13.63854 -2.55627,-4.81789 -2.60198,-15.15604 -0.0911,-20.62226 4.75987,-10.36246 16.14564,-15.79015 33.12323,-15.79015 13.05419,0 22.65016,3.57946 29.20224,10.89287 3.01295,3.36316 6.97965,11.30938 6.08972,12.19931 -0.31897,0.31896 -16.7216,3.59991 -17.99723,3.59991 -0.39279,0 -0.93439,-0.8774 -1.20348,-1.94979 -0.78717,-3.13624 -3.88971,-6.48372 -7.5502,-8.14622 -4.12576,-1.87384 -13.46499,-2.10462 -17.46897,-0.43167 -8.18614,3.42038 -8.38016,13.65889 -0.30872,16.29171 1.48383,0.48401 8.32819,1.82502 15.20975,2.98002 19.27027,3.23433 27.05094,7.99876 30.08032,18.41946 3.33351,11.4668 -1.89105,23.06558 -12.92531,28.69482 -6.70264,3.41943 -20.32253,5.36882 -29.66694,4.24618 z"
           id="path5964" />
        <path
           style="fill:#243632;fill-opacity:1;stroke-width:0.834128"
           d="m 634.70935,858.00633 c -14.56004,-2.19557 -25.05546,-9.65656 -31.23301,-22.20298 -3.05958,-6.21384 -4.25022,-11.98298 -4.23487,-20.51855 0.0384,-21.25928 11.87123,-37.83814 30.46253,-42.68056 6.37057,-1.65933 17.22366,-1.63471 22.96646,0.0521 17.99765,5.28638 28.0398,18.87424 29.6857,40.16712 l 0.53192,6.88156 h -31.51627 -31.5162 l 0.51374,3.74842 c 0.63369,4.62287 3.77618,10.93739 6.93386,13.93255 3.59718,3.41211 7.86608,4.84046 14.46645,4.84046 8.58968,0 14.78901,-3.18287 17.94017,-9.21093 l 1.10873,-2.12084 9.6889,1.38467 c 5.32899,0.76158 9.86615,1.56186 10.08277,1.77843 0.82837,0.82838 -4.0869,8.76303 -7.81336,12.61291 -4.69539,4.85094 -9.42707,7.76199 -15.81424,9.7293 -6.05668,1.86553 -15.84743,2.57226 -22.25328,1.60631 z m 25.92345,-55.1924 c -1.76118,-9.00228 -8.15452,-14.67727 -17.35879,-15.40834 -9.88992,-0.78552 -16.5813,2.83083 -20.39627,11.0231 -3.52102,7.56112 -4.71107,7.09616 18.16206,7.09616 h 20.12334 z"
           id="path5963" />
        <path
           style="fill:#243632;fill-opacity:1;stroke-width:0.834128"
           d="m 429.93683,857.95937 c -9.16031,-1.51858 -16.48387,-6.41895 -20.33012,-13.60343 -2.56903,-4.79862 -2.55569,-16.86002 0.0242,-21.73147 4.29542,-8.11153 11.93445,-11.89377 29.4458,-14.57932 16.10502,-2.46987 22.22518,-3.59767 23.66338,-4.36058 1.26471,-0.67092 1.48242,-1.50534 1.15369,-4.42193 -0.53718,-4.76626 -3.1485,-8.24433 -7.49806,-9.98696 -4.24872,-1.70219 -13.18323,-1.97394 -17.48583,-0.53184 -3.4814,1.16687 -7.875,5.70511 -8.69804,8.98445 -0.54569,2.174 -0.57188,2.18036 -6.81099,1.65296 -3.4447,-0.29118 -7.70793,-0.52943 -9.47377,-0.52943 -3.08403,0 -3.21065,-0.10992 -3.21065,-2.78622 0,-3.91611 4.54258,-12.55705 8.19181,-15.58245 7.17425,-5.94781 17.3602,-9.15755 29.0611,-9.15755 13.64867,0 22.75118,3.22615 29.37366,10.41076 7.22204,7.83499 7.15848,7.46691 7.45643,43.18196 l 0.26275,31.48834 h -10.06375 -10.06367 v -5.1029 -5.1029 l -3.4085,3.40853 c -4.33755,4.3375 -10.54571,7.3372 -17.4447,8.42901 -6.18648,0.97905 -7.81712,0.96994 -14.14456,-0.079 z m 21.02695,-16.95105 c 7.6397,-3.19207 12.31006,-10.00154 12.94725,-18.87733 l 0.39471,-5.49827 -12.82305,2.38334 c -7.05272,1.31084 -14.0101,2.77106 -15.46081,3.24493 -3.61286,1.1801 -6.80991,4.58168 -7.43425,7.90976 -0.58081,3.09585 0.76606,8.06058 2.59956,9.5822 4.07229,3.37974 13.29158,3.96496 19.77659,1.25537 z"
           id="path5962" />
        <path
           style="fill:#243632;fill-opacity:1;stroke-width:0.834128"
           d="m 307.28439,829.2975 v -56.30365 h 10.00953 10.00954 v 5.51168 5.51168 l 5.02178,-4.64929 c 6.19507,-5.73552 12.66165,-8.05303 22.38375,-8.02193 11.74127,0.0375 19.72954,3.18189 28.22531,11.11011 14.53092,13.5603 17.74332,38.35 7.28268,56.19982 -5.62527,9.59871 -17.32217,17.49746 -28.77099,19.42855 -11.66595,1.96773 -21.9394,-0.70173 -29.58194,-7.68663 l -4.6204,-4.22278 0.2384,19.71373 0.23847,19.71374 -10.21807,-6.7e-4 -10.21806,-7.5e-4 z m 53.82578,10.6081 c 4.16964,-2.15079 8.81098,-6.9977 11.35632,-11.85929 1.7329,-3.30995 1.96504,-4.88731 1.96404,-13.34605 0,-8.34401 -0.25174,-10.09657 -1.92676,-13.46559 -4.1713,-8.38968 -11.5872,-13.22651 -20.27915,-13.22651 -7.13713,0 -11.09924,1.40261 -15.73457,5.57015 -4.78748,4.30436 -7.25867,9.23077 -8.29257,16.53156 -2.23305,15.76781 4.46609,28.10917 17.03973,31.39124 4.13044,1.07816 12.2772,0.25927 15.87296,-1.59551 z"
           id="path5961" />
        <path
           style="fill:#243632;fill-opacity:1;stroke-width:0.834128"
           d="m 527.19266,887.61519 c -7.42257,-1.79671 -15.41978,-5.97819 -19.7881,-10.34652 -4.33297,-4.33294 -7.12805,-8.99231 -6.04435,-10.07599 0.38504,-0.38505 4.39035,-2.03592 8.90073,-3.66859 l 8.20057,-2.96849 3.67575,4.08834 c 2.02167,2.24859 5.1258,4.66851 6.89799,5.37759 4.81041,1.92478 12.50625,2.55258 17.8053,1.45252 10.94109,-2.27137 16.46468,-9.32595 17.19621,-21.96259 l 0.38837,-6.70949 -2.96757,3.28475 c -6.13627,6.79218 -16.95783,9.76788 -29.09106,7.99945 -9.24022,-1.34678 -16.14246,-4.89781 -22.28665,-11.466 -7.99345,-8.54499 -10.92616,-16.48694 -10.92616,-29.58817 0,-12.81316 3.72163,-22.86237 11.26432,-30.41612 8.19748,-8.20948 18.11,-11.7769 30.93481,-11.13308 8.98581,0.45111 13.56459,2.28979 19.47914,7.82216 l 4.198,3.92671 v -5.13655 -5.13656 l 10.00954,0.20391 10.00945,0.20391 -0.0142,40.06041 c -0.0159,43.6656 -0.34475,47.57476 -4.67237,55.52617 -4.77121,8.76639 -15.7274,16.41501 -26.90814,18.78493 -6.97915,1.47933 -19.8922,1.41902 -26.26135,-0.1227 z m 21.66539,-51.62588 c 5.53844,-1.64473 10.5498,-6.10171 13.41019,-11.92659 2.03069,-4.13541 2.33973,-5.7319 2.3077,-11.92282 -0.0317,-6.07175 -0.38478,-7.85896 -2.3469,-11.8693 -1.27046,-2.59668 -3.67258,-5.8445 -5.33809,-7.21738 -6.42428,-5.29539 -16.51782,-6.58244 -23.97492,-3.05709 -8.64557,4.0872 -12.42092,10.96218 -12.42092,22.61881 0,5.9919 0.37869,8.34895 1.87604,11.67779 4.81742,10.70981 14.8665,15.14748 26.4869,11.69658 z"
           id="path17" />
      </g>
    </g>
  </g>
</svg>
